<svg xmlns="http://www.w3.org/2000/svg" viewBox="0 0 32 32">
  <!-- Terracotta rounded-square background -->
  <rect width="32" height="32" rx="7" fill="#D05228"/>

  <!-- Left page -->
  <path d="M6 12
           C6 11 6.8 10.2 8.2 9.8
           C10.5 9.1 13 9 15.2 9.2
           L15.5 9.2
           L15.5 23.5
           C13 23.2 10.5 23.2 8.2 23.8
           C6.8 24.2 6 23.4 6 22.4 Z"
        fill="#FAF8F4"/>

  <!-- Right page (slightly warmer to suggest depth) -->
  <path d="M26 12
           C26 11 25.2 10.2 23.8 9.8
           C21.5 9.1 19 9 16.8 9.2
           L16.5 9.2
           L16.5 23.5
           C19 23.2 21.5 23.2 23.8 23.8
           C25.2 24.2 26 23.4 26 22.4 Z"
        fill="#EDE3D8"/>

  <!-- Spine shadow -->
  <rect x="15.4" y="9.2" width="1.2" height="14.3" fill="#2C1810" opacity="0.15"/>
</svg>
